<svg xmlns="http://www.w3.org/2000/svg" data-name="Layer 1" viewBox="0 0 32 32"><path d="M24.5,29h-.458V25.68359a10.47128,10.47128,0,0,0-3.77832-8.06641l-.55762-.46484a1.49946,1.49946,0,0,1,0-2.30469l.55762-.46484c.18286-.15234.348-.32013.51886-.483l.04364-.02917c.03088-.0296.05737-.06323.08789-.0932.16107-.159.31378-.32355.46344-.49152.09119-.10236.181-.20508.268-.31091q.2189-.26587.41858-.54395c.06818-.09528.13367-.19177.19867-.28925.13892-.2077.27209-.41791.39557-.63452.04266-.07507.08154-.15179.12231-.22784.1297-.24127.25391-.48437.3642-.73492.022-.0498.03986-.10126.0611-.15143.11621-.27576.2265-.55359.31885-.83887l.00323-.01135a10.47085,10.47085,0,0,0,.37915-1.63776c.01947-.12543.04755-.24915.06244-.37543.0155-.13434.0177-.271.02808-.40643.01605-.20447.03851-.4082.04236-.614.00018-.01257-.00592-.02386-.00665-.03632.00079-.05255.00861-.10394.00861-.15656V3H24.5a1.5,1.5,0,0,0,0-3H7.5a1.5,1.5,0,0,0,0,3h.458V6.31641c0,.05261.00781.104.00861.15656-.00073.01245-.00684.02374-.00665.03632.00378.2041.02625.40625.04211.60919.0105.13739.01276.276.0285.41235.01135.09607.03345.19019.04755.28589A10.441,10.441,0,0,0,11.218,13.90039l.02417.02539.01117.00745c.15979.151.31274.30774.483.44958l.55762.46484a1.49946,1.49946,0,0,1,0,2.30469l-.55762.46484A10.47128,10.47128,0,0,0,7.958,25.68359V29H7.5a1.5,1.5,0,0,0,0,3h17a1.5,1.5,0,0,0,0-3ZM7.5,2a.5.5,0,0,1,0-1h17a.5.5,0,0,1,0,1H7.5ZM8.958,3H23.042V6H8.958Zm2.94824,10.17621c-.0426-.04065-.08765-.0791-.12939-.12042-.12732-.12555-.24908-.2561-.36865-.38855q-.14072-.15591-.27368-.31744c-.116-.14075-.23029-.2829-.33771-.43005-.06812-.093-.1308-.18915-.19537-.28436-.11572-.17126-.2323-.34222-.33661-.52063-.00946-.01611-.01715-.0332-.02649-.04938a9.59079,9.59079,0,0,1-.70966-1.52124l-.00055-.00134c-.07245-.19989-.13086-.40466-.18994-.60913-.03033-.10608-.063-.21136-.08966-.3186-.0434-.17242-.07837-.347-.11206-.52185-.02942-.15527-.05609-.31116-.07788-.46832-.02051-.14563-.039-.2915-.05273-.43817C9.00024,7.12488,9.00006,7.062,8.99561,7H23.00439c-.00446.06244-.00458.12561-.01031.18781-.01355.14459-.03168.28833-.05182.43182-.02252.16339-.05011.3255-.08093.48682-.03162.16388-.06439.32739-.10437.489-.03394.1377-.075.27295-.115.40869-.04938.16748-.09631.33588-.15448.5-.07007.197-.15149.38916-.23437.58075-.06018.14026-.12183.27924-.18848.41614-.11737.239-.24054.47534-.37787.70392-.03149.05292-.06671.10315-.09918.1554-.14978.23859-.30792.47223-.47913.69739-.02625.03467-.05322.06866-.08.103q-.27017.34534-.57428.66626c-.03516.03693-.06909.0752-.10486.11145-.06952.07123-.14777.13513-.21967.20441L16,15.89893ZM8.958,25.68359A9.473,9.473,0,0,1,12.377,18.38574l.55762-.46484a2.35161,2.35161,0,0,0,.85852-2.29266L15.5,16.7674V18.5a.5.5,0,0,0,1,0V16.767l1.7074-1.14313a2.35535,2.35535,0,0,0,.858,2.29706l.55762.46484A9.473,9.473,0,0,1,23.042,25.68359V29h-.1051l-5.17712-3.64941a3.06163,3.06163,0,0,0-3.51953,0L9.06311,29H8.958ZM21.20117,29H10.79883l4.01758-2.832a2.05865,2.05865,0,0,1,2.36719,0ZM24.5,31H7.5a.5.5,0,0,1,0-1h17a.5.5,0,0,1,0,1Zm-8-9a.5.5,0,1,0-.5-.5A.5.5,0,0,0,16.5,22Zm-1,2a.5.5,0,1,0-.5-.5A.5.5,0,0,0,15.5,24Z"/></svg>